<svg width="24" height="24" viewBox="0 0 24 24" fill="none" xmlns="http://www.w3.org/2000/svg">
<path fill-rule="evenodd" clip-rule="evenodd" d="M12 0C5.37256 0 0 5.37258 0 12C0 18.6274 5.37256 24 12 24C18.6274 24 24 18.6274 24 12C24 5.37258 18.6274 0 12 0ZM16.7072 7.29289C17.0977 7.68342 17.0977 8.31658 16.7072 8.70711L13.4142 12L16.7072 15.2929C17.0977 15.6834 17.0977 16.3166 16.7072 16.7071C16.3165 17.0976 15.6835 17.0976 15.2928 16.7071L12 13.4142L8.70715 16.7071C8.31653 17.0976 7.68347 17.0976 7.29285 16.7071C6.90234 16.3166 6.90234 15.6834 7.29285 15.2929L10.5858 12L7.29285 8.70711C6.90234 8.31658 6.90234 7.68342 7.29285 7.29289C7.68347 6.90237 8.31653 6.90237 8.70715 7.29289L12 10.5858L15.2928 7.29289C15.6835 6.90237 16.3165 6.90237 16.7072 7.29289Z" fill="black"/>
</svg>
